PathFileType	4	(X/Y/Z)	/Users/itak/Documents/Research/Walk-IL/dataset/trc/00267_00010.trc
DataRate	CameraRate	NumFrames	NumMarkers	Units	OrigDataRate	OrigDataStartFrame	OrigNumFrames
100.000000	100.000000	4	54	mm	100.000000	0	415
Frame#	Time	RPSI			LPSI			L3			STRN			T10			C7			CLAV			RBAK			LBAK			LSHO			LUPA			LAEL			LAOL			LWTS			LWPS			LFRA			LIFD			LHPS			LHTS			RSHO			RUPA			RAEL			RAOL			RWTS			RWPS			RFRA			RIFD			RHTS			RHPS			RBHD			LFHD			RFHD			LBHD			LHIP			RHIP			RASI			LKNE			LTHI			LANK			LTIP			LTOE			LMT1			LMT5			LHEE			RKNE			RTHI			RANK			RTIP			RTOE			RMT1			RMT5			RHEE			LASI			*53			
		X1	Y1	Z1	X2	Y2	Z2	X3	Y3	Z3	X4	Y4	Z4	X5	Y5	Z5	X6	Y6	Z6	X7	Y7	Z7	X8	Y8	Z8	X9	Y9	Z9	X10	Y10	Z10	X11	Y11	Z11	X12	Y12	Z12	X13	Y13	Z13	X14	Y14	Z14	X15	Y15	Z15	X16	Y16	Z16	X17	Y17	Z17	X18	Y18	Z18	X19	Y19	Z19	X20	Y20	Z20	X21	Y21	Z21	X22	Y22	Z22	X23	Y23	Z23	X24	Y24	Z24	X25	Y25	Z25	X26	Y26	Z26	X27	Y27	Z27	X28	Y28	Z28	X29	Y29	Z29	X30	Y30	Z30	X31	Y31	Z31	X32	Y32	Z32	X33	Y33	Z33	X34	Y34	Z34	X35	Y35	Z35	X36	Y36	Z36	X37	Y37	Z37	X38	Y38	Z38	X39	Y39	Z39	X40	Y40	Z40	X41	Y41	Z41	X42	Y42	Z42	X43	Y43	Z43	X44	Y44	Z44	X45	Y45	Z45	X46	Y46	Z46	X47	Y47	Z47	X48	Y48	Z48	X49	Y49	Z49	X50	Y50	Z50	X51	Y51	Z51	X52	Y52	Z52	X53	Y53	Z53	X54	Y54	Z54	

1	0	777.4758911132812	987.787109375	21.20729637145996	782.3561401367188	979.619873046875	-153.0025329589844	801.1028442382812	1062.64013671875	-68.67151641845703	1057.234252929688	1238.317626953125	-68.65572357177734	789.1190185546875	1178.469482421875	-71.52890014648438	840.569091796875	1420.85986328125	-87.66355895996094	996.4669189453125	1339.455810546875	-74.44868469238281	781.9187622070312	1286.595092773438	-11.59127616882324	825.8894653320312	1384.5478515625	-192.5302276611328	918.0474853515625	1391.553466796875	-240.7955932617188	891.8869018554688	1274.508178710938	-314.215087890625	893.8818359375	1073.1923828125	-333.3300476074219	826.061767578125	1060.109130859375	-279.6290893554688	980.9321899414062	859.9188842773438	-278.9816589355469	954.2572631835938	847.2413330078125	-344.2113952636719	912.3612060546875	971.1514282226562	-341.1821594238281	991.9931030273438	672.3207397460938	-281.1414489746094	961.701171875	758.8538208007812	-341.3544921875	1011.017395019531	762.4461059570312	-297.7705383300781	900.2380981445312	1401.0703125	74.00111389160156	891.5462036132812	1343.301513671875	142.6371154785156	890.8500366210938	1079.196411132812	199.6703948974609	844.0020141601562	1065.9013671875	115.913459777832	994.79443359375	859.737548828125	144.8919219970703	961.6902465820312	857.0051879882812	223.0328979492188	919.2062377929688	1013.087707519531	211.0461883544922	1007.639526367188	675.9595947265625	151.6947784423828	1030.543701171875	746.5092163085938	162.5187683105469	987.8683471679688	745.220458984375	219.3456573486328	848.3667602539062	1565.422119140625	-9.611663818359375	1007.822509765625	1639.846313476562	-129.0570220947266	1008.155578613281	1634.359985351562	-35.98862838745117	850.43994140625	1563.86669921875	-157.7593383789062	857.5499267578125	935.32861328125	-246.7732696533203	877.3096313476562	942.9905395507812	126.0809173583984	998.0111083984375	954.955810546875	58.21711730957031	983.3009643554688	479.03955078125	-226.1208190917969	956.867431640625	619.099609375	-243.6748962402344	851.7208251953125	41.3471565246582	-211.0199127197266	913.8760986328125	254.9906616210938	-231.2802734375	1058.072875976562	27.61226844787598	-146.5601196289062	985.5106201171875	21.55160522460938	-109.4043502807617	975.7664184570312	35.88750076293945	-220.1900787353516	803.6529541015625	37.36455917358398	-154.1408233642578	959.265380859375	473.1661376953125	80.91531372070312	956.86376953125	730.3897705078125	124.6784820556641	859.9959716796875	37.76556396484375	44.75063705444336	963.2046508789062	346.0820007324219	65.40980529785156	1057.010009765625	33.5688591003418	-8.282106399536133	999.340087890625	32.87447738647461	-48.14032363891602	963.7792358398438	27.97012519836426	64.61186981201172	806.634521484375	37.42817306518555	-7.768550872802734	991.0755004882812	951.2782592773438	-193.0398406982422	nan	nan	nan	
2	0.01	776.4952392578125	987.5978393554688	21.89421844482422	781.3331298828125	979.198974609375	-152.2966461181641	800.2315063476562	1062.4765625	-67.86337280273438	1056.679809570312	1237.95068359375	-68.16289520263672	788.3740234375	1178.456420898438	-70.63736724853516	840.2163696289062	1420.767822265625	-86.81930541992188	996.0407104492188	1339.169921875	-73.86312103271484	781.5055541992188	1286.6142578125	-10.65726280212402	825.31591796875	1384.45654296875	-191.6803588867188	917.3887329101562	1391.306396484375	-240.0730743408203	890.69775390625	1274.357788085938	-313.43701171875	892.0145874023438	1073.178100585938	-332.8347473144531	824.3850708007812	1060.106567382812	-278.8804321289062	979.9854125976562	860.3367309570312	-278.9465637207031	953.0901489257812	847.5953369140625	-344.091064453125	910.7210083007812	971.3292846679688	-340.8256530761719	992.3881225585938	672.7908325195312	-281.6458740234375	960.9434814453125	759.1703491210938	-341.1942138671875	1010.328918457031	762.9078979492188	-297.7486877441406	900.113037109375	1400.955932617188	74.72252655029297	891.4629516601562	1343.207763671875	143.3846435546875	890.8275146484375	1079.082885742188	200.4652099609375	843.6483764648438	1065.778076171875	116.7787780761719	994.4274291992188	859.541748046875	145.4594573974609	961.5292358398438	856.853759765625	223.6870422363281	919.17431640625	1012.957275390625	211.7789459228516	1007.088745117188	675.7693481445312	152.2370452880859	1030.04833984375	746.2659912109375	162.9701538085938	987.6585083007812	745.05615234375	219.9823608398438	848.0021362304688	1565.283081054688	-9.042082786560059	1007.252746582031	1639.571044921875	-128.8548126220703	1007.706481933594	1634.208251953125	-35.75970077514648	849.8486938476562	1563.503051757812	-157.2316284179688	856.85595703125	934.7457275390625	-245.9476928710938	876.3002319335938	943.044921875	126.6812210083008	997.1591186523438	954.9527587890625	58.85892105102539	984.4705200195312	478.9717712402344	-225.8865356445312	957.2958374023438	619.0674438476562	-243.2064361572266	851.8260498046875	41.6529426574707	-211.0055541992188	914.5543823242188	255.1585235595703	-231.2416229248047	1058.102905273438	27.5914478302002	-146.5690155029297	985.5133666992188	21.54509925842285	-109.4323577880859	975.8358764648438	35.97815704345703	-220.2078552246094	803.6690063476562	37.89314651489258	-154.1630706787109	958.7401123046875	473.19970703125	81.48415374755859	956.36083984375	730.1845092773438	125.1493301391602	859.9775390625	37.78510665893555	44.73043441772461	962.7890014648438	346.1196594238281	65.79939270019531	1057.04248046875	33.56980133056641	-8.275599479675293	999.3479614257812	32.87372970581055	-48.13519287109375	963.784423828125	27.9641056060791	64.60980224609375	806.6587524414062	37.4420166015625	-7.804417610168457	990.0592651367188	951.0208129882812	-192.3746032714844	nan	nan	nan	
3	0.02	775.2454223632812	987.3966064453125	22.76483917236328	779.9087524414062	978.6839599609375	-151.4246215820312	799.1168212890625	1062.269287109375	-66.8421630859375	1055.972412109375	1237.469970703125	-67.55751037597656	787.4254760742188	1178.446533203125	-69.5035400390625	839.7758178710938	1420.657958984375	-85.74066925048828	995.5072021484375	1338.7958984375	-73.12873840332031	780.9932250976562	1286.64794921875	-9.458100318908691	824.582275390625	1384.351684570312	-190.5756683349609	916.5330200195312	1390.99462890625	-239.1547698974609	889.1450805664062	1274.189208984375	-312.4557495117188	889.5916137695312	1073.167602539062	-332.2298583984375	822.2183837890625	1060.11474609375	-277.9342041015625	978.7387084960938	860.8902587890625	-278.92578125	951.5637817382812	848.04443359375	-343.9514770507812	908.594482421875	971.5628662109375	-340.3918151855469	992.9027099609375	673.3492431640625	-282.3052062988281	959.9418334960938	759.58984375	-341.0190734863281	1009.4521484375	763.54833984375	-297.7931213378906	899.9834594726562	1400.802368164062	75.64625549316406	891.4000244140625	1343.082885742188	144.3467864990234	890.781494140625	1078.933471679688	201.4727935791016	843.2255249023438	1065.623168945312	117.8833999633789	993.975341796875	859.2980346679688	146.1876373291016	961.3311767578125	856.6588745117188	224.5212097167969	919.1085205078125	1012.785827636719	212.705078125	1006.421813964844	675.5305786132812	152.9187469482422	1029.448120117188	745.9671630859375	163.5523529052734	987.3858642578125	744.8446655273438	220.7819671630859	847.5264282226562	1565.115356445312	-8.329038619995117	1006.520751953125	1639.203857421875	-128.6152648925781	1007.130187988281	1634.028076171875	-35.48703765869141	849.0975952148438	1563.01318359375	-156.5591735839844	856.0592651367188	934.0317993164062	-244.8798980712891	874.9940185546875	943.1385498046875	127.4463577270508	996.0438232421875	954.9531860351562	59.65742111206055	986.0018310546875	478.9353942871094	-225.6346893310547	957.816650390625	619.0332641601562	-242.604736328125	851.9912109375	42.11283874511719	-210.9761352539062	915.4434814453125	255.4373779296875	-231.1983795166016	1058.14599609375	27.56624603271484	-146.576416015625	985.5303344726562	21.56364250183105	-109.478515625	975.9412231445312	36.09077835083008	-220.2287750244141	803.725341796875	38.65948867797852	-154.1583099365234	957.990478515625	473.2403869628906	82.22370910644531	955.7029418945312	730.0494384765625	125.727783203125	859.9607543945312	37.79874038696289	44.71149444580078	962.214599609375	346.1595458984375	66.30731964111328	1057.086547851562	33.56710052490234	-8.261941909790039	999.3593139648438	32.87651062011719	-48.12017440795898	963.7838745117188	27.96026611328125	64.60950469970703	806.6889038085938	37.45669937133789	-7.841015815734863	988.7131958007812	950.6870727539062	-191.5430755615234	nan	nan	nan	
4	0.03	773.7568359375	987.2039794921875	23.78903388977051	778.1134643554688	978.0940551757812	-150.4138946533203	797.782470703125	1062.03076171875	-65.64485168457031	1055.137084960938	1236.884887695312	-66.87271881103516	786.3056640625	1178.444702148438	-68.16243743896484	839.27099609375	1420.538330078125	-84.46038055419922	994.8883666992188	1338.341796875	-72.27809906005859	780.4102783203125	1286.69970703125	-8.025424957275391	823.711181640625	1384.243041992188	-189.2418365478516	915.5005493164062	1390.632080078125	-238.0718536376953	887.2645263671875	1274.019775390625	-311.3078002929688	886.677734375	1073.167358398438	-331.5469970703125	819.6229248046875	1060.140014648438	-276.8268737792969	977.2149658203125	861.5685424804688	-278.9346923828125	949.7085571289062	848.574462890625	-343.8057556152344	906.0353393554688	971.8472290039062	-339.9042053222656	993.4957275390625	673.9677124023438	-283.0937194824219	958.7079467773438	760.1049194335938	-340.8539428710938	1008.408203125	764.36865234375	-297.9363098144531	899.87353515625	1400.610595703125	76.74387359619141	891.3821411132812	1342.927612304688	145.4946899414062	890.7066040039062	1078.750610351562	202.657470703125	842.7549438476562	1065.442749023438	119.1875915527344	993.461669921875	859.0169677734375	147.0548095703125	961.1024780273438	856.4256591796875	225.5066680908203	918.9998168945312	1012.575805664062	213.7913360595703	1005.678100585938	675.2518920898438	153.7127227783203	1028.779907226562	745.6288452148438	164.2508392333984	987.0621337890625	744.5928955078125	221.7140808105469	846.9518432617188	1564.928833007812	-7.500669002532959	1005.648559570312	1638.749877929688	-128.3546905517578	1006.443298339844	1633.831909179688	-35.18951416015625	848.213134765625	1562.399169921875	-155.7646331787109	855.0856323242188	933.2239379882812	-243.6290435791016	873.4207763671875	943.2822265625	128.3459320068359	994.68798828125	954.9588623046875	60.57641220092773	987.87451171875	478.9649047851562	-225.4029998779297	958.4013671875	619.0015258789062	-241.9061431884766	852.22705078125	42.74948120117188	-210.9261474609375	916.5293579101562	255.8519592285156	-231.1560821533203	1058.205078125	27.53738021850586	-146.5807647705078	985.5709228515625	21.62404251098633	-109.5466690063477	976.0894165039062	36.22423553466797	-220.2540740966797	803.8438720703125	39.68946838378906	-154.1130676269531	957.0066528320312	473.288330078125	83.11510467529297	954.8967895507812	730.0704956054688	126.3853530883789	859.949462890625	37.80153656005859	44.69849395751953	961.4771728515625	346.2029418945312	66.92053985595703	1057.140991210938	33.56016540527344	-8.239253044128418	999.3748779296875	32.88494110107422	-48.09257125854492	963.7772827148438	27.95703315734863	64.61404418945312	806.7208862304688	37.47227096557617	-7.872335433959961	987.0546875	950.28466796875	-190.5821838378906	nan	nan	nan	
